<svg width="1200" height="800" viewBox="0 0 1200 800" fill="none" xmlns="http://www.w3.org/2000/svg">
<g id="wave" clip-path="url(#clip0_51_9)">
<path id="wave__target-3" d="M0 756L28.6667 753.6C57.3333 751.067 114.667 746.267 171.733 748.4C228.933 750.667 285.733 760 342.933 759.6C400 759.067 457.333 748.933 514.4 746.667C571.6 744.4 628.4 750.267 685.6 754.667C742.667 759.067 800 762.267 857.067 763.333C914.267 764.4 971.067 763.6 1028.27 763.067C1085.33 762.667 1142.67 762.667 1171.33 762.667H1200V801.333H1171.33C1142.67 801.333 1085.33 801.333 1028.27 801.333C971.067 801.333 914.267 801.333 857.067 801.333C800 801.333 742.667 801.333 685.6 801.333C628.4 801.333 571.6 801.333 514.4 801.333C457.333 801.333 400 801.333 342.933 801.333C285.733 801.333 228.933 801.333 171.733 801.333C114.667 801.333 57.3333 801.333 28.6667 801.333H0V756Z" fill="#0E1E3A"/>
<path id="wave__target-2" d="M0 756L28.6667 756.267C57.3333 756.4 114.667 756.933 171.733 757.733C228.933 758.667 285.733 760 342.933 764C400 768 457.333 774.667 514.4 773.6C571.6 772.4 628.4 763.6 685.6 762.4C742.667 761.333 800 768 857.067 770.267C914.267 772.4 971.067 770.267 1028.27 768.667C1085.33 767.067 1142.67 766.267 1171.33 765.733L1200 765.333V801.333H1171.33C1142.67 801.333 1085.33 801.333 1028.27 801.333C971.067 801.333 914.267 801.333 857.067 801.333C800 801.333 742.667 801.333 685.6 801.333C628.4 801.333 571.6 801.333 514.4 801.333C457.333 801.333 400 801.333 342.933 801.333C285.733 801.333 228.933 801.333 171.733 801.333C114.667 801.333 57.3333 801.333 28.6667 801.333H0V756Z" fill="#06182E"/>
<path id="wave__target-1" d="M0 778.667L28.6667 778.4C57.3333 778.267 114.667 777.733 171.733 777.067C228.933 776.4 285.733 775.6 342.933 775.733C400 776 457.333 777.333 514.4 776.933C571.6 776.4 628.4 774.267 685.6 773.333C742.667 772.4 800 772.933 857.067 773.333C914.267 773.733 971.067 774.267 1028.27 775.733C1085.33 777.333 1142.67 780 1171.33 781.333L1200 782.667V801.333H1171.33C1142.67 801.333 1085.33 801.333 1028.27 801.333C971.067 801.333 914.267 801.333 857.067 801.333C800 801.333 742.667 801.333 685.6 801.333C628.4 801.333 571.6 801.333 514.4 801.333C457.333 801.333 400 801.333 342.933 801.333C285.733 801.333 228.933 801.333 171.733 801.333C114.667 801.333 57.3333 801.333 28.6667 801.333H0V778.667Z" fill="#001122"/>
</g>
<defs>
<clipPath id="clip0_51_9">
<rect width="1200" height="800" fill="white"/>
</clipPath>
</defs>
</svg>
